<?xml version="1.0" standalone="no"?>
<!DOCTYPE svg PUBLIC "-//W3C//DTD SVG 20010904//EN"
 "http://www.w3.org/TR/2001/REC-SVG-20010904/DTD/svg10.dtd">
<svg version="1.0" xmlns="http://www.w3.org/2000/svg"
 width="400.000000pt" height="400.000000pt" viewBox="0 0 400.000000 400.000000"
 preserveAspectRatio="xMidYMid meet">
<metadata>
Created by potrace 1.11, written by Peter Selinger 2001-2013
</metadata>
<g transform="translate(0.000000,400.000000) scale(0.100000,-0.100000)"
fill="#000000" stroke="none">
<path d="M2142 3042 c-34 -70 -88 -183 -120 -252 -125 -265 -146 -308 -197
-415 -29 -60 -74 -155 -100 -210 -26 -55 -78 -165 -116 -243 -38 -79 -69 -145
-69 -147 0 -1 -42 -90 -93 -196 -51 -107 -108 -227 -127 -266 -18 -40 -34 -72
-36 -70 -1 1 -5 36 -8 77 -4 41 -9 91 -11 110 -2 19 -7 60 -10 90 -7 68 -16
150 -20 170 -2 8 -6 44 -10 80 -3 36 -9 79 -11 95 -3 17 -7 41 -9 55 -2 14 -8
63 -15 110 -6 47 -13 96 -15 110 -2 14 -7 49 -10 79 -4 30 -8 61 -10 70 -1 9
-6 43 -10 76 -4 32 -8 67 -10 75 -2 9 -6 41 -9 71 -3 30 -8 65 -11 79 -2 14
-6 45 -9 70 -5 45 -7 58 -25 185 -18 124 -24 170 -24 183 0 9 -39 12 -160 12
l-159 0 6 -52 c4 -29 8 -64 11 -78 4 -21 32 -218 50 -345 3 -22 8 -56 11 -75
3 -19 8 -48 10 -63 4 -31 13 -99 19 -137 4 -28 33 -236 41 -290 2 -20 6 -45 8
-55 2 -11 7 -45 11 -75 4 -30 9 -64 11 -74 2 -11 8 -54 14 -95 6 -42 12 -87
14 -101 2 -14 7 -47 11 -73 4 -27 8 -56 10 -65 1 -10 6 -39 9 -67 8 -55 8 -55
35 -245 11 -74 23 -157 27 -185 4 -27 10 -68 13 -90 l6 -40 160 0 159 0 68
130 c42 82 72 129 81 127 8 -1 25 22 42 55 41 84 159 331 183 383 33 74 163
345 167 348 1 2 56 -15 121 -37 66 -22 139 -42 164 -46 25 -4 65 -10 90 -15
49 -9 280 -6 320 5 14 3 39 9 55 12 55 9 182 63 243 103 147 95 270 257 334
440 53 153 39 317 -39 433 -107 160 -288 254 -648 335 -82 19 -122 26 -195 38
-14 2 -40 6 -58 9 -17 3 -47 8 -65 10 l-34 4 -61 -127z m433 -193 c194 -49
306 -118 358 -220 47 -92 40 -185 -24 -317 -118 -244 -368 -346 -661 -271 -95
24 -208 67 -208 80 0 5 52 109 115 231 63 123 150 291 192 375 l77 152 36 -5
c19 -3 71 -14 115 -25z"/>
</g>
</svg>
